<svg id="ic-excel" xmlns="http://www.w3.org/2000/svg" width="17.97" height="23.964" viewBox="0 0 17.97 23.964">
  <path id="file-excel-regular" d="M17.31,4.486,13.384.56A2.246,2.246,0,0,0,11.8-.1H2.246A2.254,2.254,0,0,0,0,2.151V21.618a2.247,2.247,0,0,0,2.246,2.246H15.723a2.247,2.247,0,0,0,2.246-2.246V6.077a2.257,2.257,0,0,0-.66-1.591ZM15.541,5.895H11.98V2.333ZM2.246,21.618V2.151H9.734V7.018a1.12,1.12,0,0,0,1.123,1.123h4.867V21.618Zm9.921-11.231H10.819a.556.556,0,0,0-.491.295,24.454,24.454,0,0,0-1.338,2.7c-.65-1.362-.323-.81-1.338-2.7a.564.564,0,0,0-.5-.295H5.8a.561.561,0,0,0-.487.842l2.167,3.65L5.316,18.53a.56.56,0,0,0,.487.842H7.155a.556.556,0,0,0,.491-.295,24.33,24.33,0,0,0,1.338-2.7c.7,1.413.276.744,1.338,2.7a.564.564,0,0,0,.5.295h1.348a.561.561,0,0,0,.487-.842l-2.171-3.65c.033-.051,1.418-2.363,2.167-3.65A.559.559,0,0,0,12.167,10.387Z" transform="translate(0 0.1)" fill="#fcfcfc"/>
</svg>
